# xmcd
#
# Track frame offsets: 
#        150
#        13505
#        25580
#        39050
#        51842
#        64712
#        75190
#        88057
#        101835
#        115315
#
# Disc length: 1670 seconds
#
# Revision: 0
# Processed by: cddbd v1.5.2PL0 Copyright (c) Steve Scherf et al.
# Submitted via: ExactAudioCopy v0.99pb5
#
DISCID=6a06840a
DTITLE=Norman Wade - For A Minute There
DYEAR=1997
DGENRE=Country
TTITLE0=For A Minute There
TTITLE1=The Lamp
TTITLE2=I've Got Hank To Thank
TTITLE3=Old Lonesome Time
TTITLE4=I Still Need Her
TTITLE5=Crying At 3:00 A.M.
TTITLE6=La' Louisian'
TTITLE7=Sarah's Eyes
TTITLE8=I Need What I Don't Get At Home
TTITLE9=Monkey On My Back
EXTD=
EXTT0=
EXTT1=
EXTT2=
EXTT3=
EXTT4=
EXTT5=
EXTT6=
EXTT7=
EXTT8=
EXTT9=
PLAYORDER=
